# xmcd
#
# Track frame offsets:
#	150
#	16230
#	32956
#	49829
#	65205
#	86733
#	109534
#	125510
#
# Disc length: 1970 seconds
#
# Revision: 1
# Processed by: cddbd v1.5.2PL0 Copyright (c) Steve Scherf et al.
# Submitted via: audiograbber 1.83.01
#
DISCID=6b07b008
DTITLE=The Gio Blues Band - Back to Blues
DYEAR=2008
DGENRE=Blues
TTITLE0=The 24th August Blues
TTITLE1=You Know Why Now
TTITLE2=Devil's Beverage
TTITLE3=Boogie Legs
TTITLE4=I Just Want To Waste My Time
TTITLE5=I Think Beyond Nowhere
TTITLE6=I Just Want To Play The Blues
TTITLE7=Only Whisky
EXTD=
EXTT0=
EXTT1=
EXTT2=
EXTT3=
EXTT4=
EXTT5=
EXTT6=
EXTT7=
PLAYORDER=
